
<svg width="37" height="33" viewBox="0 0 37 33" fill="none" xmlns="http://www.w3.org/2000/svg">
<g filter="url(#filter0_d_1638_2492)">
<path fill-rule="evenodd" clip-rule="evenodd" d="M23.7927 18.4791H13.9371C13.3078 18.4791 12.7971 17.9684 12.7971 17.3391C12.7971 16.7098 13.3078 16.1991 13.9371 16.1991H23.7927C24.422 16.1991 24.9327 16.7098 24.9327 17.3391C24.9327 17.9684 24.422 18.4791 23.7927 18.4791ZM13.9371 9.32716H18.9044C19.5337 9.32716 20.0444 9.83788 20.0444 10.4672C20.0444 11.0965 19.5337 11.6072 18.9044 11.6072H13.9371C13.3078 11.6072 12.7971 11.0965 12.7971 10.4672C12.7971 9.83788 13.3078 9.32716 13.9371 9.32716ZM29.8028 5.54084C27.231 2.27436 23.396 0.264918 19.2829 0.0247577C15.1728 -0.216922 11.1357 1.3198 8.22646 4.24124C3.96134 8.51852 2.79702 15.088 5.31718 20.5493C5.48286 20.9658 5.98902 21.9113 6.82046 23.3583C6.96334 23.6045 6.94814 23.9009 6.7855 24.132C6.44654 24.6093 6.01942 25.2203 5.68806 25.7204C5.25638 26.3649 5.21686 27.1902 5.58166 27.8742C5.94494 28.5521 6.6715 28.9169 7.41934 28.9732L8.35566 28.9717C11.9611 28.9701 17.1458 28.9686 18.3891 28.9732H18.4393C22.6968 28.9732 26.7248 27.0929 29.4927 23.8097C33.8962 18.5855 34.0269 10.9019 29.8028 5.54084Z" fill="#F7F7F7"/>
</g>
<defs>
<filter id="filter0_d_1638_2492" x="0.35738" y="0" width="36.1704" height="36.2584" filterUnits="userSpaceOnUse" color-interpolation-filters="sRGB">
<feFlood flood-opacity="0" result="BackgroundImageFix"/>
<feColorMatrix in="SourceAlpha" type="matrix" values="0 0 0 0 0 0 0 0 0 0 0 0 0 0 0 0 0 0 127 0" result="hardAlpha"/>
<feOffset dy="3.64262"/>
<feGaussianBlur stdDeviation="1.82131"/>
<feComposite in2="hardAlpha" operator="out"/>
<feColorMatrix type="matrix" values="0 0 0 0 0 0 0 0 0 0 0 0 0 0 0 0 0 0 0.25 0"/>
<feBlend mode="normal" in2="BackgroundImageFix" result="effect1_dropShadow_1638_2492"/>
<feBlend mode="normal" in="SourceGraphic" in2="effect1_dropShadow_1638_2492" result="shape"/>
</filter>
</defs>
</svg>
