<svg fill="#0a5abd" height="24px" width="24px" version="1.1" id="Layer_1" xmlns="http://www.w3.org/2000/svg" xmlns:xlink="http://www.w3.org/1999/xlink" viewBox="0 0 512 512" xml:space="preserve" transform="rotate(90)"><g id="SVGRepo_bgCarrier" stroke-width="0"></g><g id="SVGRepo_tracerCarrier" stroke-linecap="round" stroke-linejoin="round"></g><g id="SVGRepo_iconCarrier"> <g> <g> <path d="M415.707,29.483h-49.506C352.67,11.588,331.219,0,307.106,0s-45.564,11.588-59.094,29.483H162.61H29.975v416.199 c0,36.568,29.75,66.318,66.318,66.318h319.414c36.568,0,66.318-29.75,66.318-66.318V95.802 C482.025,59.233,452.275,29.483,415.707,29.483z M263.474,74.052c0-0.882,0.033-1.763,0.087-2.641 c0.013-0.212,0.032-0.422,0.049-0.633c0.053-0.703,0.121-1.404,0.208-2.101c0.023-0.187,0.046-0.373,0.071-0.559 c0.246-1.795,0.598-3.572,1.065-5.319c0.005-0.017,0.01-0.034,0.014-0.052c0.223-0.833,0.477-1.656,0.748-2.474 c0.047-0.138,0.092-0.276,0.14-0.414c0.262-0.76,0.544-1.512,0.847-2.256c0.036-0.087,0.068-0.177,0.104-0.265 c0.336-0.808,0.698-1.606,1.082-2.394c0.085-0.173,0.176-0.343,0.264-0.515c0.294-0.583,0.602-1.16,0.924-1.731 c7.492-13.28,21.726-22.274,38.029-22.274c16.298,0,30.527,8.988,38.017,22.263c0.327,0.579,0.639,1.164,0.937,1.755 c0.084,0.167,0.174,0.332,0.257,0.501c0.384,0.788,0.746,1.586,1.082,2.394c0.037,0.09,0.071,0.183,0.107,0.273 c0.301,0.74,0.582,1.488,0.842,2.242c0.05,0.143,0.097,0.286,0.146,0.43c0.269,0.807,0.518,1.622,0.739,2.444 c0.007,0.027,0.016,0.054,0.023,0.081c0.242,0.909,0.456,1.824,0.64,2.746c0.168,0.845,0.303,1.697,0.421,2.552 c0.026,0.196,0.051,0.392,0.075,0.589c0.085,0.686,0.151,1.373,0.204,2.062c0.016,0.222,0.037,0.444,0.051,0.666 c0.053,0.874,0.086,1.75,0.086,2.63v202.242c0,1.504-0.076,2.99-0.226,4.454c-2.164,21.24-19.627,38.022-41.162,39.117 c-0.742,0.038-1.49,0.057-2.242,0.057s-1.499-0.019-2.242-0.057c-23.019-1.17-41.387-20.267-41.387-43.571V74.052z M132.188,445.682c0,19.792-16.102,35.895-35.895,35.895s-35.895-16.102-35.895-35.895V59.907h20.683v275.228h30.423V59.907 h20.683V445.682z M415.707,481.577H152.013c6.694-10.354,10.598-22.674,10.598-35.895V59.907h71.809 c-0.031,0.159-0.052,0.321-0.082,0.481c-0.181,0.965-0.352,1.934-0.495,2.911c-0.041,0.275-0.068,0.552-0.105,0.826 c-0.121,0.898-0.239,1.795-0.328,2.702c-0.046,0.468-0.07,0.937-0.108,1.405c-0.057,0.723-0.122,1.444-0.157,2.173 c-0.053,1.076-0.076,2.154-0.082,3.233c-0.001,0.138-0.01,0.275-0.01,0.413v202.242c0,38.281,29.197,69.869,66.492,73.669 c2.487,0.253,5.009,0.383,7.561,0.383c40.833,0,74.053-33.219,74.053-74.052V74.052c0-1.221-0.032-2.441-0.093-3.658 c-0.033-0.677-0.095-1.348-0.147-2.02c-0.041-0.519-0.068-1.041-0.119-1.559c-0.085-0.875-0.2-1.741-0.315-2.607 c-0.042-0.307-0.072-0.616-0.118-0.922c-0.14-0.955-0.307-1.9-0.484-2.844c-0.034-0.178-0.057-0.359-0.091-0.536h35.914 c19.792,0,35.895,16.102,35.895,35.896v349.881h0.001C451.601,465.474,435.499,481.577,415.707,481.577z"></path> </g> </g> <g> <g> <circle cx="307.104" cy="74.051" r="21.96"></circle> </g> </g> </g></svg>